<svg width="538" height="318" viewBox="0 0 538 318" fill="none" xmlns="http://www.w3.org/2000/svg">
<mask id="mask0_575_114" style="mask-type:luminance" maskUnits="userSpaceOnUse" x="0" y="0" width="538" height="318">
<path d="M536.974 55.1114L28.7381 0.733868L0.733841 262.474L508.97 316.851L536.974 55.1114Z" fill="white" stroke="white" stroke-width="1.33333"/>
</mask>
<g mask="url(#mask0_575_114)">
<g opacity="0.199997">
<path d="M79.9594 271.597C83.3335 259.303 87.2341 247.247 91.9046 235.57C110.171 189.995 139.93 150.995 183.311 128.613C226.139 106.573 282.611 100.044 339.817 100.433C396.67 100.823 451.43 107.201 497.88 102.451C510.457 101.159 522.334 98.4478 533.192 94.4289" stroke="#9DA1A8" stroke-width="1.16267"/>
<path d="M60.3099 269.495C65.1515 253.098 70.9078 237.121 78.1749 221.901C98.9923 178.368 132.918 142.255 179.524 123.697C226.522 105.013 286.045 102.699 345.72 105.977C404.493 109.235 460.032 117.354 506.098 112.485C515.155 111.522 523.772 109.683 531.842 107.043" stroke="#9DA1A8" stroke-width="1.16267"/>
<path d="M40.169 267.34C46.5125 246.663 54.2592 226.663 64.6355 208.003C87.8461 166.342 125.931 133.164 175.632 118.344C226.813 103.112 289.27 104.903 351.443 111.141C412.042 117.207 468.359 127.116 514.022 122.149C519.75 121.522 525.269 120.487 530.555 119.07" stroke="#9DA1A8" stroke-width="1.16267"/>
<path d="M19.9788 265.18C27.7385 240.044 37.474 215.94 51.3948 194.025C76.8352 154.063 119.018 123.848 171.697 112.658C227.016 100.94 292.304 106.766 356.988 115.962C419.315 124.83 476.407 136.507 521.649 131.44C524.27 131.144 526.841 130.75 529.358 130.262" stroke="#9DA1A8" stroke-width="1.16267"/>
<path d="M0.475417 262.1C9.4039 232.676 20.9283 204.747 38.5341 180.1C66.0481 141.668 112.221 114.448 167.767 106.743C227.146 98.5688 295.179 108.307 362.363 120.462C425.992 131.986 483.564 145.372 528.27 140.43" stroke="#9DA1A8" stroke-width="1.16267"/>
<path d="M7.76619 193.958C13.1215 184.322 19.1789 175.088 26.1094 166.344C55.5646 129.283 105.57 105.02 163.895 100.685C227.201 96.0264 297.923 109.559 367.555 124.666C428.871 137.97 484.089 152.165 527.285 149.638" stroke="#9DA1A8" stroke-width="1.16267"/>
<path d="M11.8729 155.575C12.635 154.662 13.4076 153.756 14.1907 152.856C45.4445 117.014 99.1023 95.6741 160.121 94.5718C227.214 93.4022 300.547 110.568 372.569 128.601C431.586 143.37 484.581 158.297 526.39 158.006" stroke="#9DA1A8" stroke-width="1.16267"/>
<path d="M14.7518 128.667C48.6099 101.086 99.9792 86.7166 156.477 88.4684C227.192 90.7044 303.059 111.412 377.405 132.284C434.165 148.225 485.061 163.797 525.583 165.543" stroke="#9DA1A8" stroke-width="1.16267"/>
<path d="M16.947 108.151C52.087 87.5399 100.737 78.5553 152.992 82.4439C227.151 87.992 305.482 112.067 382.058 135.731C418.144 146.899 451.751 157.388 482.827 164.643C497.731 168.115 511.872 170.771 524.885 172.067" stroke="#9DA1A8" stroke-width="1.16267"/>
<path d="M18.7304 91.4819C54.3276 76.1144 100.689 71.0385 149.682 76.5521C227.112 85.2937 307.814 112.602 386.513 138.955C423.347 151.285 457.456 162.751 488.875 170.709C501.288 173.845 513.156 176.377 524.253 177.976" stroke="#9DA1A8" stroke-width="1.16267"/>
<path d="M20.2274 77.49C55.829 66.1975 100.205 64.0659 146.57 70.8451C227.085 82.6602 310.061 113.009 390.771 141.965C428.302 155.406 462.869 167.827 494.609 176.423C504.72 179.162 514.459 181.477 523.696 183.182" stroke="#9DA1A8" stroke-width="1.16267"/>
<path d="M21.5101 65.5015C56.8521 57.4389 99.4855 57.5829 143.662 65.3628C227.078 80.0952 312.212 113.359 394.819 144.774C432.989 159.29 468.001 172.553 500.025 181.786C508.013 184.087 515.763 186.11 523.206 187.76" stroke="#9DA1A8" stroke-width="1.16267"/>
<path d="M22.622 55.1085C57.5536 49.6372 98.6432 51.5651 140.97 60.1439C227.093 77.628 314.267 113.636 398.642 147.382C437.41 162.9 472.825 176.965 505.112 186.789C511.149 188.623 517.05 190.294 522.779 191.757" stroke="#9DA1A8" stroke-width="1.16267"/>
<path d="M23.5925 46.0381C58.0346 42.67 97.7593 46.0166 138.499 55.2238C227.138 75.2877 316.224 113.856 402.243 149.799C441.569 166.231 477.341 181.059 509.86 191.438C514.118 192.795 518.302 194.067 522.406 195.239" stroke="#9DA1A8" stroke-width="1.16267"/>
<path d="M24.4431 38.0886C58.3633 36.4289 96.8801 40.9071 136.249 50.6239C227.202 73.0963 318.077 114.044 405.603 152.025C445.436 169.31 481.529 184.852 514.263 195.726C516.898 196.602 519.505 197.445 522.084 198.25" stroke="#9DA1A8" stroke-width="1.16267"/>
<path d="M25.3261 29.8343C58.5219 29.8423 95.5358 36.123 134.217 46.3668C227.292 71.0647 319.818 114.183 408.713 154.066C449.002 172.135 485.401 188.289 518.311 199.655C519.481 200.059 520.648 200.455 521.806 200.845" stroke="#9DA1A8" stroke-width="1.16267"/>
<path d="M25.9714 23.8033C58.6811 24.9923 94.7689 31.9043 132.4 42.4738C227.401 69.209 321.418 114.323 411.564 155.915C452.09 174.613 488.604 191.295 521.569 203.065" stroke="#9DA1A8" stroke-width="1.16267"/>
<path d="M26.5321 18.5635C58.7811 20.6975 94.0675 28.1186 130.8 38.9594C227.528 67.5046 322.884 114.441 414.146 157.576C453.585 176.241 489.18 192.891 521.367 204.951" stroke="#9DA1A8" stroke-width="1.16267"/>
<path d="M27.0148 14.0514C58.8399 16.9529 93.4319 24.8061 129.405 35.836C227.653 66.0182 324.219 114.523 416.449 159.047C454.942 177.621 489.707 194.243 521.197 206.537" stroke="#9DA1A8" stroke-width="1.16267"/>
<path d="M27.4242 10.2257C58.8748 13.739 92.8861 21.9086 128.212 33.1102C227.785 64.7013 325.394 114.599 418.465 160.328C456.107 178.839 490.162 195.407 521.056 207.859" stroke="#9DA1A8" stroke-width="1.16267"/>
<path d="M27.7648 7.04308C58.8919 11.0443 92.419 19.47 127.21 30.7945C227.905 63.5956 326.394 114.671 420.182 161.415C457.13 179.819 490.567 196.348 520.941 208.933" stroke="#9DA1A8" stroke-width="1.16267"/>
<path d="M28.0398 4.47054C58.8976 8.84647 92.0352 17.4788 126.402 28.8941C228.017 62.6771 327.225 114.733 421.599 162.308C457.952 180.645 490.896 197.109 520.85 209.784" stroke="#9DA1A8" stroke-width="1.16267"/>
<path d="M28.252 2.48909C58.9034 7.14201 91.7449 15.9174 125.78 27.4093C228.11 61.9735 327.898 114.761 422.707 163.004C458.615 181.257 491.162 197.686 520.781 210.428" stroke="#9DA1A8" stroke-width="1.16267"/>
<path d="M28.4019 1.08755C58.9057 5.93108 91.5361 14.8025 125.337 26.3479C228.184 61.4459 328.356 114.807 423.501 163.502C459.068 181.723 491.348 198.099 520.733 210.879" stroke="#9DA1A8" stroke-width="1.16267"/>
<path d="M28.4916 0.248697C58.9023 5.20863 91.4046 14.1463 125.072 25.7111C228.22 61.1615 328.645 114.82 423.979 163.8C459.359 181.974 491.47 198.328 520.705 211.139" stroke="#9DA1A8" stroke-width="1.16267"/>
</g>
</g>
</svg>
