<svg width="184" height="184" viewBox="0 0 184 184" fill="none" xmlns="http://www.w3.org/2000/svg">
<path fill-rule="evenodd" clip-rule="evenodd" d="M40.0449 40.0439C37.5431 31.0192 38.0153 21.3415 41.465 12.5661C43.233 8.06929 45.7822 3.81135 49.1135 0C53.9574 0.656972 58.6975 2.17902 63.1166 4.51869C66.8534 6.48877 70.3572 9.04611 73.4974 12.1863C86.0602 24.7491 89.2951 43.13 83.183 58.6784C81.415 63.175 78.8656 67.433 75.5345 71.2445L73.4985 73.4974L71.2445 75.5345C67.433 78.8656 63.175 81.415 58.6784 83.183C43.13 89.2951 24.7491 86.0602 12.1863 73.4974C9.04611 70.3572 6.48877 66.8534 4.51869 63.1166C2.17902 58.6975 0.656972 53.9574 0 49.1135C3.81135 45.7822 8.06929 43.233 12.5661 41.465C21.3611 38.0076 31.0623 37.541 40.104 40.0616L40.0449 40.0439ZM56.3441 69.9982C54.882 66.4851 52.7155 63.2017 49.8612 60.3474C40.4064 50.8925 26.2437 48.9855 14.9002 54.6498C16.3625 58.1629 18.5288 61.4463 21.3831 64.3006C30.8379 73.7555 45.0006 75.6625 56.3441 69.9982ZM69.9982 56.3441C66.4851 54.882 63.2017 52.7155 60.3474 49.8612C50.8925 40.4064 48.9855 26.2437 54.6498 14.9002C58.1629 16.3625 61.4463 18.5288 64.3006 21.3831C73.7555 30.8379 75.6625 45.0006 69.9982 56.3441Z" fill="#366059"/>
<path fill-rule="evenodd" clip-rule="evenodd" d="M143.849 40.1533C152.873 37.6515 162.551 38.1239 171.326 41.5736C175.823 43.3416 180.081 45.8908 183.893 49.2219C183.236 54.0658 181.714 58.8059 179.374 63.2249C177.404 66.9618 174.847 70.4656 171.706 73.6058C159.143 86.1686 140.763 89.4035 125.214 83.2914C120.718 81.5234 116.46 78.9742 112.648 75.6429L110.395 73.6068L108.358 71.3529C105.027 67.5416 102.478 63.2834 100.71 58.7868C94.5975 43.2386 97.8324 24.8575 110.395 12.2947C113.535 9.15451 117.039 6.59717 120.776 4.62729C125.195 2.28741 129.935 0.76537 134.779 0.108398C138.11 3.91996 140.66 8.17789 142.428 12.6745C145.885 21.4695 146.352 31.1707 143.831 40.2126L143.849 40.1533ZM127.548 70.1066C129.011 66.5935 131.177 63.3101 134.031 60.4558C143.486 51.0009 157.649 49.0939 168.992 54.7582C167.53 58.2713 165.364 61.5547 162.509 64.409C153.055 73.8639 138.892 75.7709 127.548 70.1066ZM113.894 56.4525C117.408 54.9904 120.691 52.8241 123.545 49.9698C133 40.515 134.907 26.3523 129.243 15.0088C125.73 16.4709 122.446 18.6374 119.592 21.4917C110.137 30.9465 108.23 45.1092 113.894 56.4525Z" fill="#366059"/>
<path fill-rule="evenodd" clip-rule="evenodd" d="M143.955 143.956C146.457 152.981 145.985 162.659 142.535 171.434C140.767 175.931 138.218 180.189 134.887 184C130.043 183.343 125.303 181.821 120.883 179.481C117.147 177.511 113.643 174.954 110.503 171.814C97.94 159.251 94.7051 140.87 100.817 125.322C102.585 120.825 105.134 116.567 108.466 112.756L110.502 110.503L112.756 108.466C116.567 105.134 120.825 102.585 125.322 100.817C140.87 94.7051 159.251 97.94 171.814 110.503C174.954 113.643 177.511 117.147 179.481 120.883C181.821 125.303 183.343 130.043 184 134.887C180.189 138.218 175.931 140.767 171.434 142.535C162.639 145.992 152.938 146.459 143.896 143.938L143.955 143.956ZM127.656 114.002C129.118 117.515 131.285 120.798 134.139 123.653C143.594 133.107 157.756 135.015 169.1 129.35C167.638 125.837 165.471 122.554 162.617 119.699C153.162 110.245 138.999 108.338 127.656 114.002ZM114.002 127.656C117.515 129.118 120.798 131.285 123.653 134.139C133.107 143.594 135.015 157.756 129.35 169.1C125.837 167.638 122.554 165.471 119.699 162.617C110.245 153.162 108.338 138.999 114.002 127.656Z" fill="#366059"/>
<path fill-rule="evenodd" clip-rule="evenodd" d="M40.0439 143.954C31.0192 146.456 21.3415 145.984 12.5661 142.534C8.06929 140.766 3.81135 138.217 0 134.885C0.656972 130.041 2.17902 125.302 4.51869 120.882C6.48877 117.146 9.04611 113.642 12.1863 110.502C24.7491 97.9389 43.13 94.704 58.6784 100.816C63.175 102.584 67.433 105.133 71.2445 108.465L73.4974 110.5L75.5345 112.755C78.8656 116.566 81.415 120.824 83.183 125.321C89.2951 140.869 86.0602 159.25 73.4974 171.813C70.3572 174.953 66.8534 177.51 63.1166 179.48C58.6975 181.82 53.9574 183.342 49.1135 183.999C45.7822 180.188 43.233 175.93 41.465 171.433C38.0076 162.638 37.541 152.937 40.0616 143.895L40.0439 143.954ZM69.9982 127.655C66.4851 129.117 63.2017 131.283 60.3474 134.138C50.8925 143.593 48.9855 157.755 54.6498 169.099C58.1629 167.637 61.4463 165.47 64.3006 162.616C73.7555 153.161 75.6625 138.998 69.9982 127.655ZM56.3441 114.001C54.882 117.514 52.7155 120.797 49.8612 123.652C40.4064 133.106 26.2437 135.013 14.9002 129.349C16.3625 125.836 18.5288 122.553 21.3831 119.699C30.8379 110.244 45.0006 108.337 56.3441 114.001Z" fill="#366059"/>
</svg>
