<svg width="213" height="213" viewBox="0 0 213 213" fill="none" xmlns="http://www.w3.org/2000/svg">
<path fill-rule="evenodd" clip-rule="evenodd" d="M212.898 23.4187C212.898 10.4936 202.404 0 189.479 0H23.4187C10.4937 0 0 10.4936 0 23.4187V189.479C0 202.404 10.4937 212.898 23.4187 212.898H189.479C202.404 212.898 212.898 202.404 212.898 189.479V23.4187Z" fill="#1C4340"/>
<path fill-rule="evenodd" clip-rule="evenodd" d="M62.9318 62.9303C60.8365 55.3713 61.232 47.2653 64.1215 39.915C65.6024 36.1486 67.7376 32.5822 70.5278 29.3896C74.585 29.9401 78.5553 31.2148 82.2568 33.1747C85.3866 34.8246 88.3214 36.9667 90.9516 39.5971C101.474 50.1195 104.184 65.5155 99.0643 78.5386C97.5834 82.3052 95.4482 85.8716 92.6579 89.064L90.9525 90.951L89.0646 92.6573C85.8722 95.4475 82.3058 97.5828 78.5392 99.0637C65.5161 104.183 50.1201 101.474 39.5977 90.951C36.9673 88.3208 34.8252 85.386 33.1753 82.2562C31.2154 78.5546 29.9407 74.5843 29.3903 70.5272C32.5828 67.737 36.1493 65.6017 39.9156 64.1208C47.2823 61.225 55.408 60.834 62.9815 62.9453L62.9318 62.9303ZM76.5842 88.0201C75.3594 85.0776 73.5449 82.3275 71.1541 79.9365C63.2348 72.0174 51.3721 70.42 41.8708 75.1644C43.0955 78.1069 44.9102 80.857 47.3009 83.2478C55.2203 91.1671 67.0829 92.7645 76.5842 88.0201ZM88.0207 76.5836C85.0783 75.3588 82.3281 73.5443 79.9371 71.1535C72.018 63.2342 70.4207 51.3715 75.165 41.8702C78.1075 43.0949 80.8577 44.9095 83.2484 47.3003C91.1678 55.2196 92.7651 67.0823 88.0207 76.5836Z" fill="white"/>
<path fill-rule="evenodd" clip-rule="evenodd" d="M149.878 63.0222C157.437 60.9267 165.543 61.3222 172.893 64.2117C176.66 65.6925 180.226 67.8278 183.419 70.618C182.868 74.6753 181.594 78.6455 179.634 82.347C177.984 85.477 175.842 88.4117 173.211 91.042C162.689 101.565 147.293 104.274 134.27 99.1545C130.503 97.6736 126.937 95.5383 123.744 92.7482L121.857 91.0429L120.151 89.1548C117.361 85.9624 115.226 82.396 113.745 78.6296C108.625 65.6063 111.335 50.2105 121.857 39.6879C124.488 37.0576 127.422 34.9154 130.552 33.2655C134.254 31.3058 138.224 30.0309 142.281 29.4806C145.071 32.673 147.207 36.2395 148.688 40.006C151.583 47.3725 151.974 55.4982 149.863 63.0717L149.878 63.0222ZM136.225 88.1109C137.45 85.1684 139.264 82.4183 141.655 80.0275C149.574 72.1082 161.437 70.5108 170.938 75.2552C169.714 78.1978 167.899 80.948 165.508 83.3388C157.589 91.2581 145.726 92.8554 136.225 88.1109ZM124.788 76.6744C127.731 75.4498 130.481 73.6351 132.872 71.2443C140.791 63.325 142.388 51.4623 137.644 41.961C134.702 43.1857 131.951 45.0003 129.561 47.3911C121.641 55.3104 120.044 67.1731 124.788 76.6744Z" fill="white"/>
<path fill-rule="evenodd" clip-rule="evenodd" d="M149.967 149.967C152.063 157.526 151.667 165.632 148.778 172.983C147.297 176.749 145.161 180.316 142.371 183.508C138.314 182.958 134.344 181.683 130.642 179.723C127.512 178.073 124.578 175.931 121.947 173.301C111.425 162.778 108.715 147.382 113.835 134.359C115.316 130.593 117.451 127.026 120.241 123.834L121.946 121.947L123.834 120.24C127.027 117.45 130.593 115.315 134.36 113.834C147.383 108.715 162.779 111.424 173.301 121.947C175.932 124.577 178.074 127.512 179.724 130.642C181.684 134.343 182.958 138.313 183.509 142.371C180.316 145.161 176.75 147.296 172.983 148.777C165.617 151.673 157.491 152.064 149.917 149.953L149.967 149.967ZM136.315 124.878C137.54 127.82 139.354 130.57 141.745 132.961C149.664 140.88 161.527 142.478 171.028 137.733C169.803 134.791 167.989 132.041 165.598 129.65C157.679 121.731 145.816 120.133 136.315 124.878ZM124.878 136.314C127.821 137.539 130.571 139.353 132.962 141.744C140.881 149.664 142.478 161.526 137.734 171.027C134.791 169.803 132.041 167.988 129.651 165.597C121.731 157.678 120.134 145.815 124.878 136.314Z" fill="white"/>
<path fill-rule="evenodd" clip-rule="evenodd" d="M62.931 149.966C55.3719 152.061 47.2659 151.665 39.9156 148.776C36.1493 147.295 32.5828 145.16 29.3903 142.37C29.9407 138.312 31.2154 134.342 33.1753 130.641C34.8252 127.511 36.9673 124.576 39.5977 121.946C50.1201 111.423 65.5161 108.714 78.5392 113.833C82.3058 115.314 85.8722 117.449 89.0646 120.24L90.9516 121.945L92.6579 123.833C95.4482 127.025 97.5834 130.592 99.0643 134.358C104.184 147.381 101.474 162.777 90.9516 173.3C88.3214 175.93 85.3866 178.072 82.2568 179.722C78.5553 181.682 74.585 182.957 70.5278 183.507C67.7376 180.315 65.6024 176.748 64.1215 172.982C61.2256 165.615 60.8346 157.489 62.9459 149.916L62.931 149.966ZM88.0207 136.313C85.0783 137.538 82.3281 139.353 79.9371 141.743C72.018 149.663 70.4207 161.525 75.165 171.027C78.1075 169.802 80.8577 167.987 83.2484 165.597C91.1678 157.677 92.7651 145.815 88.0207 136.313ZM76.5842 124.877C75.3594 127.819 73.5449 130.57 71.1541 132.96C63.2348 140.88 51.3721 142.477 41.8708 137.733C43.0955 134.79 44.9102 132.04 47.3009 129.649C55.2203 121.73 67.0829 120.132 76.5842 124.877Z" fill="white"/>
</svg>
