<svg width="20" height="25" viewBox="0 0 20 25" fill="none" xmlns="http://www.w3.org/2000/svg">
<path d="M1 15.8179L0 15.8179L1 15.8179ZM4.14285 19.496L4.2802 18.5055L4.2802 18.5055L4.14285 19.496ZM15.8572 19.496L15.9945 20.4865L15.9945 20.4865L15.8572 19.496ZM18.3184 13.6403L19.1393 13.0693L18.3184 13.6403ZM1.68159 13.6403L0.860703 13.0692L1.68159 13.6403ZM4.00006 8C4.00006 4.68629 6.68635 2 10.0001 2V0C5.58178 0 2.00006 3.58172 2.00006 8H4.00006ZM4.00006 10.6742V8H2.00006V10.6742H4.00006ZM2 15.8179C2 15.2192 2.18563 14.6668 2.50248 14.2114L0.860703 13.0692C0.318177 13.849 4.45929e-08 14.7978 0 15.8179L2 15.8179ZM4.2802 18.5055C2.97176 18.324 2 17.1856 2 15.8179L0 15.8179C-1.01367e-07 18.137 1.6622 20.1616 4.0055 20.4865L4.2802 18.5055ZM10 19.0003C8.29419 19.0003 6.08526 18.7558 4.2802 18.5055L4.0055 20.4865C5.82681 20.7391 8.14921 21.0003 10 21.0003V19.0003ZM15.7198 18.5055C13.9147 18.7558 11.7058 19.0003 10 19.0003V21.0003C11.8508 21.0003 14.1732 20.7391 15.9945 20.4865L15.7198 18.5055ZM18 15.8179C18 17.1856 17.0282 18.324 15.7198 18.5055L15.9945 20.4865C18.3378 20.1616 20 18.137 20 15.8179H18ZM17.4975 14.2114C17.8144 14.6668 18 15.2192 18 15.8179H20C20 14.7979 19.6818 13.8491 19.1393 13.0693L17.4975 14.2114ZM16.0001 8V10.6744H18.0001V8H16.0001ZM10.0001 2C13.3138 2 16.0001 4.68629 16.0001 8H18.0001C18.0001 3.58172 14.4183 0 10.0001 0V2ZM19.1393 13.0693C18.4575 12.0891 18.0001 11.3991 18.0001 10.6744H16.0001C16.0001 12.1502 16.9227 13.3851 17.4975 14.2114L19.1393 13.0693ZM2.00006 10.6742C2.00006 11.399 1.54262 12.089 0.860703 13.0692L2.50248 14.2114C3.07736 13.385 4.00006 12.1502 4.00006 10.6742H2.00006Z" fill="black"/>
<path d="M12.5001 22.6591C11.9626 23.4674 11.0435 24.0002 10.0001 24.0002C8.95658 24.0002 8.03753 23.4674 7.50007 22.6591" stroke="black" stroke-width="2" stroke-linecap="round"/>
</svg>
