<svg width="20" height="25" viewBox="0 0 20 25" fill="none" xmlns="http://www.w3.org/2000/svg">
<path d="M0.999891 15.8179L0.249891 15.8179L0.999891 15.8179ZM4.14274 19.496L4.24575 18.7531L4.24575 18.7531L4.14274 19.496ZM15.857 19.496L15.754 18.7531L15.754 18.7531L15.857 19.496ZM18.3183 13.6403L18.934 13.212L18.3183 13.6403ZM3.74995 8C3.74995 4.54822 6.54817 1.75 9.99995 1.75V0.25C5.71974 0.25 2.24995 3.71979 2.24995 8H3.74995ZM3.74995 10.6742V8H2.24995V10.6742H3.74995ZM1.74989 15.8179C1.74989 15.1665 1.95209 14.5646 2.29715 14.0686L1.06582 13.212C0.5515 13.9513 0.249891 14.8505 0.249891 15.8179L1.74989 15.8179ZM4.24575 18.7531C2.80796 18.5537 1.74989 17.3045 1.74989 15.8179L0.249891 15.8179C0.249891 18.018 1.82578 19.9319 4.03973 20.2389L4.24575 18.7531ZM9.99989 19.2503C8.27596 19.2503 6.05285 19.0037 4.24575 18.7531L4.03973 20.2389C5.85901 20.4911 8.16722 20.7503 9.99989 20.7503V19.2503ZM15.754 18.7531C13.9469 19.0037 11.7238 19.2503 9.99989 19.2503V20.7503C11.8326 20.7503 14.1408 20.4911 15.9601 20.2389L15.754 18.7531ZM18.2499 15.8179C18.2499 17.3045 17.1918 18.5537 15.754 18.7531L15.9601 20.2389C18.174 19.9319 19.7499 18.018 19.7499 15.8179H18.2499ZM17.7027 14.0686C18.0477 14.5646 18.2499 15.1665 18.2499 15.8179H19.7499C19.7499 14.8505 19.4483 13.9513 18.934 13.212L17.7027 14.0686ZM16.25 8V10.6744H17.75V8H16.25ZM9.99995 1.75C13.4517 1.75 16.25 4.54822 16.25 8H17.75C17.75 3.71979 14.2802 0.25 9.99995 0.25V1.75ZM18.934 13.212C18.2655 12.2511 17.75 11.493 17.75 10.6744H16.25C16.25 12.0564 17.1144 13.2231 17.7027 14.0686L18.934 13.212ZM2.24995 10.6742C2.24995 11.4929 1.73436 12.251 1.06582 13.212L2.29715 14.0686C2.88541 13.223 3.74995 12.0563 3.74995 10.6742H2.24995Z" fill="black"/>
<path d="M12.5001 22.6591C11.9626 23.4674 11.0435 24.0002 10.0001 24.0002C8.95658 24.0002 8.03753 23.4674 7.50007 22.6591" stroke="black" stroke-width="1.5" stroke-linecap="round"/>
</svg>
